# xmcd
#
# Track frame offsets:
#	150
#	14213
#	27818
#	41468
#	54102
#	66530
#	79915
#	92650
#	107575
#	121150
#	135288
#	148876
#	164397
#	178611
#	191090
#	204402
#	216492
#	230334
#	244533
#	259121
#	272762
#	287289
#	300526
#	314969
#	329579
#
# Disc length: 4577 seconds
# Revision: 1
# Processed by: cddbd v1.5.2PL0 Copyright (c) Steve Scherf et al.
# Submitted via: dBpowerAMP V12.0
#
DISCID=7011df19
DTITLE=Various Artist - Those Dirty Blues Volume 5
DYEAR=1936
DGENRE=Blues
TTITLE0=Lil Johnson - Get 'Em From The Peanut Man (Hot Nuts)
TTITLE1=Sam Price and His Texas Blusicians - Harlem Gin Blues
TTITLE2=Frank Stokes - I Got Mine
TTITLE3=Bessie Smith - You've Got To Give Me Some
TTITLE4=Alberta Hunter - I'm Hard To Satisfy
TTITLE5=Harlem Hamfats - Let's Get Drunk And Truck
TTITLE6=Blind Boy Fuller - Sweet Honey Hole
TTITLE7=Speckled Red - The Dirty Dozen No. 1
TTITLE8=Barbecue Bob - Red Hot Mama Papa's Going To Cool You Off
TTITLE9=Rosetta Howard and The Harlem Hamfats - Let Your Linen Hang Low
TTITLE10=Bo Carter - All Around Man
TTITLE11=Laughing Charley Lincoln - Doodle Hole Blues
TTITLE12=Walter "Buddy Boy" Hawkins - Snatch It And Grab It
TTITLE13=Tampa Red's Hokum Jug Band With Frankie "Half Pint" Jaxon - It's Tight Like That
TTITLE14=Blind Willie McTell - Love Makin' Mama (Take 1)
TTITLE15=Papa Charlie Jackson - Sheik Of Desplaines Street
TTITLE16=Whistler's Jug Band - Low Down Blues
TTITLE17=Ed Bell - She's A Fool Gal
TTITLE18=Whistlin' Alex Moore - Blue Bloomer Blues
TTITLE19=Hattie Hart - I Let My Daddy Do That
TTITLE20=Jimmie Gordon - Bed Spring Blues No. 2
TTITLE21=Lucille Bogan - Till The Cows Come Home
TTITLE22=Whistlin' Bob Howe and Frankie Griggs - The Coldest Stuff In Town
TTITLE23=Whistlin' Rufus - Mama I Hope You're Satisfied
TTITLE24=Big Three Trio - Cigarettes, Whiskey, and Wild Wild Women
EXTD=
EXTT0=
EXTT1=
EXTT2=
EXTT3=
EXTT4=
EXTT5=
EXTT6=
EXTT7=
EXTT8=
EXTT9=
EXTT10=
EXTT11=
EXTT12=
EXTT13=
EXTT14=
EXTT15=
EXTT16=
EXTT17=
EXTT18=
EXTT19=
EXTT20=
EXTT21=
EXTT22=
EXTT23=
EXTT24=
PLAYORDER=
